<svg width="20" height="20" viewBox="0 0 20 20" fill="none" xmlns="http://www.w3.org/2000/svg">
<path d="M15.4167 3.3335H4.58333C4.1231 3.3335 3.75 3.70659 3.75 4.16683V17.5002C3.75 17.9604 4.1231 18.3335 4.58333 18.3335H15.4167C15.8769 18.3335 16.25 17.9604 16.25 17.5002V4.16683C16.25 3.70659 15.8769 3.3335 15.4167 3.3335Z" stroke="#343434" stroke-width="1.5" stroke-linejoin="round"/>
<path d="M7.49935 1.6665V4.1665V1.6665ZM12.4993 1.6665V4.1665V1.6665ZM6.66602 7.9165H13.3327H6.66602ZM6.66602 11.2498H11.666H6.66602ZM6.66602 14.5832H9.99935H6.66602Z" fill="#343434"/>
<path d="M7.49935 1.6665V4.1665M12.4993 1.6665V4.1665M6.66602 7.9165H13.3327M6.66602 11.2498H11.666M6.66602 14.5832H9.99935" stroke="#343434" stroke-width="1.5" stroke-linecap="round" stroke-linejoin="round"/>
</svg>
